# xmcd CD database file
#
# Track frame offsets:
#	150
#	19565
#	35092
#	54470
#
# Disc length: 932 seconds
#
# Revision: 0
# Processed by: cddbd v1.5.1PL0 Copyright (c) Steve Scherf et al.
# Submitted via: CDex 1.51
#
DISCID=2a03a204
DTITLE=鈴宮和由、串田晃 - 朱鷺色怪魔一　闇の血族編
DYEAR=1900
DGENRE=Anime
TTITLE0=クリスタル　ライブ
TTITLE1=蒼雷伝説
TTITLE2=クリスタル　ライブ [Off Vocal]
TTITLE3=蒼雷伝説 [Off Vocal]
EXTD=
EXTT0=
EXTT1=
EXTT2=
EXTT3=
PLAYORDER=
